<?xml version="1.0" encoding="utf-8"?>
<!-- Generator: Adobe Illustrator 16.0.0, SVG Export Plug-In . SVG Version: 6.00 Build 0)  -->
<!DOCTYPE svg PUBLIC "-//W3C//DTD SVG 1.1//EN" "http://www.w3.org/Graphics/SVG/1.1/DTD/svg11.dtd">
<svg version="1.1" xmlns="http://www.w3.org/2000/svg" xmlns:xlink="http://www.w3.org/1999/xlink" x="0px" y="0px"
	 width="83.875px" height="47.25px" viewBox="0 0 83.875 47.25" enable-background="new 0 0 83.875 47.25" xml:space="preserve">
<g id="Layer_4" display="none">
	<rect display="inline" fill="#995B5B" width="83.875" height="47.25"/>
</g>
<g id="Forma_1_3_" enable-background="new    ">
	<g id="Forma_1">
		<g>
			<path fill="#CECECE" d="M7.399,3.695h2.566V0.916H7.398c-2.123,0-3.671,1.792-3.671,3.996v1.537H0.98v2.611h2.747v7.842h3.031
				V9.061h3.208V6.449H6.758V4.617C6.758,4.089,7.096,3.695,7.399,3.695z"/>
		</g>
	</g>
	<g id="Forma_1_8_">
		<g>
			<path fill="#FFFDFD" d="M6.974,33.338H9.54v-2.779H6.973c-2.123,0-3.671,1.792-3.671,3.996v1.537H0.555v2.611h2.747v7.842h3.031
				v-7.842H9.54v-2.611H6.332V34.26C6.332,33.731,6.67,33.338,6.974,33.338z"/>
		</g>
	</g>
</g>
<g id="Forma_1_2_" enable-background="new    ">
	<g id="Forma_1_1_">
		<g>
			<path fill="#CECECE" d="M50.49,2.651c-0.734,0.32-1.525,0.537-2.356,0.634c0.849-0.499,1.497-1.29,1.806-2.232
				c-0.794,0.464-1.672,0.799-2.606,0.979c-0.748-0.784-1.814-1.273-2.993-1.273c-2.267,0-4.103,1.807-4.103,4.034
				c0,0.317,0.035,0.624,0.105,0.92c-3.409-0.169-6.433-1.775-8.455-4.217c-0.354,0.597-0.555,1.29-0.555,2.029
				c0,1.399,0.725,2.636,1.824,3.357c-0.672-0.02-1.304-0.202-1.857-0.504c-0.001,0.017-0.001,0.034-0.001,0.051
				c0,1.955,1.414,3.585,3.29,3.955c-0.344,0.093-0.707,0.142-1.081,0.142c-0.264,0-0.521-0.024-0.771-0.072
				c0.522,1.604,2.037,2.77,3.832,2.803c-1.404,1.081-3.172,1.727-5.095,1.727c-0.331,0-0.658-0.019-0.979-0.057
				c1.815,1.146,3.971,1.813,6.288,1.813c7.546,0,11.673-6.146,11.673-11.479c0-0.175-0.005-0.351-0.013-0.524
				C49.245,4.17,49.941,3.459,50.49,2.651z"/>
		</g>
	</g>
	<g id="Forma_1_6_">
		<g>
			<path fill="#FFFFFF" d="M50.064,32.294c-0.734,0.32-1.525,0.537-2.356,0.634c0.849-0.499,1.497-1.29,1.806-2.232
				c-0.794,0.464-1.672,0.799-2.606,0.979c-0.748-0.784-1.814-1.273-2.993-1.273c-2.267,0-4.103,1.807-4.103,4.034
				c0,0.317,0.035,0.624,0.105,0.92c-3.409-0.169-6.433-1.775-8.455-4.217c-0.354,0.597-0.555,1.29-0.555,2.029
				c0,1.399,0.725,2.636,1.824,3.357c-0.672-0.02-1.304-0.202-1.857-0.504c-0.001,0.017-0.001,0.034-0.001,0.051
				c0,1.955,1.414,3.585,3.29,3.955c-0.344,0.093-0.707,0.142-1.081,0.142c-0.264,0-0.521-0.024-0.771-0.072
				c0.522,1.604,2.037,2.77,3.832,2.803c-1.404,1.081-3.172,1.727-5.095,1.727c-0.331,0-0.658-0.019-0.979-0.057
				c1.815,1.146,3.971,1.813,6.288,1.813c7.546,0,11.673-6.146,11.673-11.479c0-0.175-0.005-0.351-0.013-0.524
				C48.819,33.813,49.516,33.102,50.064,32.294z"/>
		</g>
	</g>
</g>
<g id="Shape_1_1_" enable-background="new    ">
	<g id="Shape_1">
		<g>
			<path fill-rule="evenodd" clip-rule="evenodd" fill="#CECECE" d="M78.445,0.75h-7.529c-2.44,0-4.426,1.985-4.426,4.426v7.53
				c0,2.44,1.985,4.427,4.426,4.427h7.529c2.441,0,4.427-1.986,4.427-4.427v-7.53C82.872,2.735,80.887,0.75,78.445,0.75z
				 M81.549,12.706c0,1.711-1.393,3.103-3.104,3.103h-7.529c-1.711,0-3.104-1.392-3.104-3.103v-7.53
				c0-1.711,1.393-3.103,3.104-3.103h7.529c1.711,0,3.104,1.392,3.104,3.103V12.706z M77.311,6.311
				c-0.561-0.562-1.273-0.92-2.059-1.036c-0.357-0.053-0.72-0.053-1.077,0c-0.971,0.145-1.827,0.657-2.412,1.445
				s-0.827,1.757-0.683,2.728c0.144,0.971,0.656,1.827,1.445,2.412c0.64,0.475,1.398,0.724,2.18,0.724
				c0.182,0,0.365-0.014,0.547-0.041c0.971-0.144,1.828-0.657,2.412-1.445s0.827-1.756,0.684-2.727
				C78.23,7.584,77.873,6.872,77.311,6.311z M75.059,11.233c-0.621,0.092-1.24-0.063-1.745-0.438
				c-0.504-0.374-0.833-0.922-0.925-1.543c-0.092-0.62,0.063-1.24,0.438-1.744c0.374-0.505,0.922-0.833,1.543-0.925
				c0.114-0.018,0.229-0.025,0.344-0.025s0.23,0.008,0.346,0.025c1.031,0.152,1.826,0.948,1.979,1.979
				C77.229,9.846,76.34,11.043,75.059,11.233z M78.822,4.138c-0.174,0-0.345,0.071-0.469,0.194C78.23,4.455,78.16,4.625,78.16,4.8
				s0.07,0.345,0.193,0.468c0.124,0.123,0.295,0.194,0.469,0.194s0.345-0.071,0.468-0.194c0.124-0.123,0.194-0.294,0.194-0.468
				s-0.07-0.345-0.194-0.468C79.167,4.209,78.996,4.138,78.822,4.138z"/>
		</g>
	</g>
	<g id="Shape_1_3_">
		<g>
			<path fill-rule="evenodd" clip-rule="evenodd" fill="#FFFFFF" d="M78.02,30.393H70.49c-2.44,0-4.426,1.985-4.426,4.426v7.53
				c0,2.44,1.985,4.427,4.426,4.427h7.529c2.441,0,4.427-1.986,4.427-4.427v-7.53C82.446,32.378,80.461,30.393,78.02,30.393z
				 M81.123,42.349c0,1.711-1.393,3.103-3.104,3.103H70.49c-1.711,0-3.104-1.392-3.104-3.103v-7.53c0-1.711,1.393-3.103,3.104-3.103
				h7.529c1.711,0,3.104,1.392,3.104,3.103V42.349z M76.885,35.953c-0.561-0.562-1.273-0.92-2.059-1.036
				c-0.357-0.053-0.72-0.053-1.077,0c-0.971,0.145-1.827,0.657-2.412,1.445s-0.827,1.757-0.683,2.728
				c0.144,0.971,0.656,1.827,1.445,2.412c0.64,0.475,1.398,0.724,2.18,0.724c0.182,0,0.365-0.014,0.547-0.041
				c0.971-0.144,1.828-0.657,2.412-1.445s0.827-1.756,0.684-2.727C77.805,37.227,77.447,36.515,76.885,35.953z M74.633,40.876
				c-0.621,0.092-1.24-0.063-1.745-0.438c-0.504-0.374-0.833-0.922-0.925-1.543c-0.092-0.62,0.063-1.24,0.438-1.744
				c0.374-0.505,0.922-0.833,1.543-0.925c0.114-0.018,0.229-0.025,0.344-0.025s0.23,0.008,0.346,0.025
				c1.031,0.152,1.826,0.948,1.979,1.979C76.803,39.488,75.914,40.686,74.633,40.876z M78.396,33.78
				c-0.174,0-0.345,0.071-0.469,0.194c-0.123,0.123-0.193,0.293-0.193,0.468s0.07,0.345,0.193,0.468
				c0.124,0.123,0.295,0.194,0.469,0.194s0.345-0.071,0.468-0.194c0.124-0.123,0.194-0.294,0.194-0.468s-0.07-0.345-0.194-0.468
				C78.741,33.852,78.57,33.78,78.396,33.78z"/>
		</g>
	</g>
</g>
</svg>
